# xmcd
#
# Track frame offsets: 
#        150
#        16471
#        35808
#        50484
#        68512
#        88944
#        105828
#        126362
#        143699
#        156954
#        174439
#        191216
#        206103
#        224901
#        241977
#        256690
#
# Disc length: 3576 seconds
#
# Revision: 0
# Processed by: cddbd v1.5.2PL0 Copyright (c) Steve Scherf et al.
# Submitted via: ExactAudioCopyFreeDBPlugin 1.0
#
DISCID=ec0df610
DTITLE=Duke Boyz - Denim and Chrome
DYEAR=2015
DGENRE=Country
TTITLE0=Bad Boy
TTITLE1=City Slick Country Boys
TTITLE2=Willie
TTITLE3=Camo In My Boots
TTITLE4=Long Walk To Nashville
TTITLE5=Parking Lot
TTITLE6=Where I'm From
TTITLE7=Cowboys and Indians
TTITLE8=Train
TTITLE9=There's A Party Goin On
TTITLE10=Dash Fulla Cowboy Hats
TTITLE11=Open Beer
TTITLE12=Bible and My Gun
TTITLE13=Life I Chose
TTITLE14=I'm A Cowboy
TTITLE15=Good Ol Boys
EXTD=
EXTT0=
EXTT1=
EXTT2=
EXTT3=
EXTT4=
EXTT5=
EXTT6=
EXTT7=
EXTT8=
EXTT9=
EXTT10=
EXTT11=
EXTT12=
EXTT13=
EXTT14=
EXTT15=
PLAYORDER=
